<svg>
    <symbol id="logo-white" width="360" height="48" viewBox="0 0 360 48" fill="none" xmlns="http://www.w3.org/2000/svg">
        <path d="M342.786 48C339.181 48 336.096 47.2891 333.53 45.8672C330.963 44.4309 328.995 42.4345 327.626 39.878C326.256 37.3071 325.571 34.3268 325.571 30.9372C325.571 27.5476 326.256 24.5746 327.626 22.018C328.995 19.4471 330.963 17.4507 333.53 16.0288C336.096 14.5925 339.181 13.8744 342.786 13.8744C346.39 13.8744 349.475 14.5925 352.041 16.0288C354.608 17.4507 356.576 19.4471 357.945 22.018C359.315 24.5746 360 27.5476 360 30.9372C360 34.3268 359.315 37.3071 357.945 39.878C356.576 42.4345 354.608 44.4309 352.041 45.8672C349.475 47.2891 346.39 48 342.786 48ZM342.872 39.2101C343.881 39.2101 344.754 38.8726 345.489 38.1975C346.224 37.5225 346.794 36.5602 347.197 35.3106C347.601 34.0611 347.803 32.5746 347.803 30.851C347.803 29.1132 347.601 27.6266 347.197 26.3914C346.794 25.1419 346.224 24.1796 345.489 23.5045C344.754 22.8295 343.881 22.492 342.872 22.492C341.805 22.492 340.89 22.8295 340.126 23.5045C339.361 24.1796 338.778 25.1419 338.374 26.3914C337.97 27.6266 337.768 29.1132 337.768 30.851C337.768 32.5746 337.97 34.0611 338.374 35.3106C338.778 36.5602 339.361 37.5225 340.126 38.1975C340.89 38.8726 341.805 39.2101 342.872 39.2101Z" fill="white"/>
        <path d="M304.431 48C300.884 48 297.827 47.325 295.261 45.9749C292.709 44.6105 290.741 42.6571 289.357 40.115C287.988 37.5584 287.303 34.4992 287.303 30.9372C287.303 27.5189 287.995 24.5315 289.379 21.9749C290.763 19.4184 292.716 17.4291 295.239 16.0072C297.763 14.5853 300.74 13.8744 304.171 13.8744C306.68 13.8744 308.95 14.2622 310.983 15.0378C313.016 15.8133 314.753 16.9408 316.195 18.4202C317.637 19.8852 318.747 21.6661 319.525 23.7631C320.304 25.86 320.693 28.2227 320.693 30.851V33.6087H291.022V27.0593H309.707C309.693 26.1114 309.448 25.2783 308.972 24.5602C308.511 23.8277 307.883 23.2604 307.091 22.8582C306.312 22.4417 305.425 22.2335 304.431 22.2335C303.465 22.2335 302.578 22.4417 301.771 22.8582C300.963 23.2604 300.314 23.8205 299.824 24.5387C299.348 25.2568 299.096 26.097 299.067 27.0593V34.1257C299.067 35.1886 299.291 36.1365 299.738 36.9695C300.185 37.8026 300.826 38.4561 301.662 38.93C302.499 39.404 303.508 39.641 304.69 39.641C305.512 39.641 306.262 39.5261 306.939 39.2963C307.631 39.0665 308.222 38.7361 308.712 38.3053C309.203 37.86 309.563 37.3286 309.794 36.711H320.693C320.318 39.009 319.432 41.0054 318.033 42.7002C316.635 44.3807 314.782 45.6877 312.475 46.6212C310.183 47.5404 307.501 48 304.431 48Z" fill="white"/>
        <path d="M260.068 47.8276C257.704 47.8276 255.527 47.21 253.537 45.9748C251.562 44.7396 249.976 42.8653 248.78 40.3518C247.597 37.8384 247.006 34.6714 247.006 30.8509C247.006 26.8581 247.626 23.6122 248.866 21.1131C250.12 18.614 251.735 16.7827 253.71 15.6194C255.7 14.456 257.791 13.8743 259.982 13.8743C261.626 13.8743 263.067 14.1615 264.307 14.7361C265.547 15.2962 266.585 16.0502 267.421 16.9982C268.257 17.9317 268.892 18.9587 269.324 20.079H269.497V3.27466H281.435V47.3967H269.584V41.9676H269.324C268.863 43.0879 268.2 44.0933 267.335 44.9838C266.484 45.8599 265.446 46.5565 264.221 47.0736C263.01 47.5763 261.626 47.8276 260.068 47.8276ZM264.48 38.693C265.576 38.693 266.513 38.377 267.292 37.745C268.084 37.0987 268.69 36.1939 269.108 35.0305C269.541 33.8527 269.757 32.4596 269.757 30.8509C269.757 29.2136 269.541 27.8132 269.108 26.6499C268.69 25.4721 268.084 24.5745 267.292 23.9569C266.513 23.3249 265.576 23.0089 264.48 23.0089C263.384 23.0089 262.447 23.3249 261.669 23.9569C260.905 24.5745 260.314 25.4721 259.895 26.6499C259.492 27.8132 259.29 29.2136 259.29 30.8509C259.29 32.4883 259.492 33.8958 259.895 35.0736C260.314 36.2369 260.905 37.1346 261.669 37.7666C262.447 38.3842 263.384 38.693 264.48 38.693Z" fill="white"/>
        <path d="M228.807 47.3968V14.3052H240.744V47.3968H228.807ZM234.775 10.8582C233.161 10.8582 231.777 10.3267 230.623 9.26391C229.47 8.20107 228.893 6.9228 228.893 5.42908C228.893 3.93537 229.47 2.65709 230.623 1.59425C231.777 0.531417 233.161 0 234.775 0C236.405 0 237.789 0.531417 238.928 1.59425C240.081 2.65709 240.658 3.93537 240.658 5.42908C240.658 6.9228 240.081 8.20107 238.928 9.26391C237.789 10.3267 236.405 10.8582 234.775 10.8582Z" fill="white"/>
        <path d="M224.193 14.3053L213.034 47.3968H199.194L188.035 14.3053H200.578L205.941 36.194H206.287L211.65 14.3053H224.193Z" fill="white"/>
        <path d="M150.112 12.9264V3.27466H188.607V12.9264H175.285V47.3967H163.434V12.9264H150.112Z" fill="white"/>
        <path d="M143.174 25.3357V34.298H122.413V25.3357H143.174Z" fill="white"/>
        <path d="M102.148 32.9193V14.3053H114.085V47.3969H102.753V41.106H102.407C101.687 43.2173 100.425 44.869 98.6229 46.0611C96.8207 47.2389 94.6797 47.8277 92.1999 47.8277C89.8787 47.8277 87.8459 47.2963 86.1014 46.2335C84.3713 45.1706 83.0233 43.7056 82.0573 41.8385C81.1058 39.9714 80.6228 37.8313 80.6084 35.4184V14.3053H92.546V32.9193C92.5604 34.5566 92.9785 35.8421 93.8003 36.7757C94.6365 37.7092 95.8043 38.176 97.3037 38.176C98.2985 38.176 99.1563 37.9678 99.8772 37.5513C100.612 37.1204 101.175 36.5171 101.564 35.7416C101.968 34.9516 102.162 34.0109 102.148 32.9193Z" fill="white"/>
        <path d="M57.332 48C53.7276 48 50.6423 47.2891 48.076 45.8672C45.5098 44.4309 43.5418 42.4345 42.1721 39.878C40.8025 37.3071 40.1177 34.3268 40.1177 30.9372C40.1177 27.5476 40.8025 24.5746 42.1721 22.018C43.5418 19.4471 45.5098 17.4507 48.076 16.0288C50.6423 14.5925 53.7276 13.8744 57.332 13.8744C60.9363 13.8744 64.0216 14.5925 66.5879 16.0288C69.1542 17.4507 71.1222 19.4471 72.4918 22.018C73.8614 24.5746 74.5463 27.5476 74.5463 30.9372C74.5463 34.3268 73.8614 37.3071 72.4918 39.878C71.1222 42.4345 69.1542 44.4309 66.5879 45.8672C64.0216 47.2891 60.9363 48 57.332 48Z" fill="white"/>
        <path d="M0 3.27466H13.4081L22.0585 21.1992H22.4045L31.0549 3.27466H44.4631L28.2003 33.5224V47.3967H16.2628V33.5224L0 3.27466Z" fill="white"/>
        <path d="M69.3442 31.5L51.6393 41.8923V21.1077L69.3442 31.5Z" fill="#FB6231"/>
    </symbol>
    <symbol id="logo-orange" xmlns="http://www.w3.org/2000/svg" width="240" height="32" viewBox="0 0 240 32" fill="none">
        <path d="M228.524 32C226.121 32 224.064 31.526 222.353 30.5781C220.642 29.6206 219.33 28.2897 218.417 26.5853C217.504 24.8714 217.048 22.8845 217.048 20.6248C217.048 18.3651 217.504 16.383 218.417 14.6787C219.33 12.9647 220.642 11.6338 222.353 10.6858C224.064 9.72833 226.121 9.24957 228.524 9.24957C230.927 9.24957 232.984 9.72833 234.694 10.6858C236.405 11.6338 237.717 12.9647 238.63 14.6787C239.543 16.383 240 18.3651 240 20.6248C240 22.8845 239.543 24.8714 238.63 26.5853C237.717 28.2897 236.405 29.6206 234.694 30.5781C232.984 31.526 230.927 32 228.524 32ZM228.581 26.1401C229.254 26.1401 229.836 25.915 230.326 25.465C230.816 25.015 231.196 24.3734 231.465 23.5404C231.734 22.7074 231.869 21.7164 231.869 20.5673C231.869 19.4088 231.734 18.4177 231.465 17.5943C231.196 16.7612 230.816 16.1197 230.326 15.6697C229.836 15.2196 229.254 14.9946 228.581 14.9946C227.87 14.9946 227.26 15.2196 226.75 15.6697C226.241 16.1197 225.852 16.7612 225.583 17.5943C225.314 18.4177 225.179 19.4088 225.179 20.5673C225.179 21.7164 225.314 22.7074 225.583 23.5404C225.852 24.3734 226.241 25.015 226.75 25.465C227.26 25.915 227.87 26.1401 228.581 26.1401Z" fill="#FB6231"/>
        <path d="M202.954 32C200.589 32 198.552 31.55 196.841 30.6499C195.139 29.7403 193.828 28.4381 192.905 26.7433C191.992 25.0389 191.535 22.9994 191.535 20.6248C191.535 18.3459 191.997 16.3543 192.919 14.6499C193.842 12.9456 195.144 11.6194 196.826 10.6715C198.508 9.72354 200.493 9.24957 202.781 9.24957C204.453 9.24957 205.967 9.5081 207.322 10.0252C208.677 10.5422 209.836 11.2939 210.797 12.2801C211.758 13.2568 212.498 14.4441 213.017 15.842C213.536 17.24 213.796 18.8151 213.796 20.5673V22.4058H194.015V18.0395H206.472C206.462 17.4076 206.298 16.8522 205.981 16.3734C205.674 15.8851 205.256 15.5069 204.727 15.2388C204.208 14.9611 203.617 14.8223 202.954 14.8223C202.31 14.8223 201.719 14.9611 201.18 15.2388C200.642 15.5069 200.21 15.8803 199.883 16.3591C199.566 16.8378 199.397 17.398 199.378 18.0395V22.7505C199.378 23.459 199.527 24.091 199.825 24.6463C200.123 25.2017 200.551 25.6374 201.108 25.9533C201.666 26.2693 202.339 26.4273 203.127 26.4273C203.675 26.4273 204.174 26.3507 204.626 26.1975C205.087 26.0443 205.482 25.8241 205.808 25.5368C206.135 25.24 206.375 24.8857 206.529 24.474H213.796C213.546 26.006 212.955 27.3369 212.022 28.4668C211.09 29.5871 209.855 30.4584 208.317 31.0808C206.789 31.6936 205.001 32 202.954 32Z" fill="#FB6231"/>
        <path d="M173.379 31.8851C171.803 31.8851 170.351 31.4734 169.025 30.6499C167.708 29.8265 166.651 28.5769 165.853 26.9013C165.065 25.2256 164.671 23.1143 164.671 20.5673C164.671 17.9055 165.084 15.7415 165.911 14.0754C166.747 12.4093 167.824 11.1885 169.14 10.4129C170.467 9.63735 171.86 9.24956 173.321 9.24956C174.417 9.24956 175.378 9.44106 176.205 9.82407C177.031 10.1975 177.724 10.7002 178.281 11.3321C178.838 11.9545 179.261 12.6391 179.55 13.386H179.665V2.18314H187.623V31.5978H179.723V27.9785H179.55C179.242 28.7253 178.8 29.3956 178.223 29.9892C177.656 30.5733 176.964 31.0377 176.147 31.3824C175.34 31.7175 174.417 31.8851 173.379 31.8851ZM176.32 25.7953C177.051 25.7953 177.675 25.5847 178.194 25.1634C178.723 24.7325 179.127 24.1293 179.406 23.3537C179.694 22.5685 179.838 21.6397 179.838 20.5673C179.838 19.4758 179.694 18.5422 179.406 17.7666C179.127 16.9815 178.723 16.383 178.194 15.9713C177.675 15.55 177.051 15.3393 176.32 15.3393C175.59 15.3393 174.965 15.55 174.446 15.9713C173.937 16.383 173.542 16.9815 173.264 17.7666C172.995 18.5422 172.86 19.4758 172.86 20.5673C172.86 21.6589 172.995 22.5973 173.264 23.3824C173.542 24.158 173.937 24.7564 174.446 25.1777C174.965 25.5895 175.59 25.7953 176.32 25.7953Z" fill="#FB6231"/>
        <path d="M152.538 31.5978V9.5368H160.496V31.5978H152.538ZM156.517 7.23878C155.441 7.23878 154.518 6.8845 153.749 6.17594C152.98 5.46738 152.595 4.6152 152.595 3.61939C152.595 2.62358 152.98 1.77139 153.749 1.06283C154.518 0.354278 155.441 0 156.517 0C157.603 0 158.526 0.354278 159.285 1.06283C160.054 1.77139 160.439 2.62358 160.439 3.61939C160.439 4.6152 160.054 5.46738 159.285 6.17594C158.526 6.8845 157.603 7.23878 156.517 7.23878Z" fill="#FB6231"/>
        <path d="M149.462 9.53683L142.023 31.5979H132.796L125.357 9.53683H133.719L137.294 24.1293H137.525L141.1 9.53683H149.462Z" fill="#FB6231"/>
        <path d="M100.075 8.61761V2.18314H125.738V8.61761H116.857V31.5978H108.956V8.61761H100.075Z" fill="#FB6231"/>
        <path d="M95.4494 16.8904V22.8653H81.6087V16.8904H95.4494Z" fill="#FB6231"/>
        <path d="M68.0987 21.9462V9.53683H76.0571V31.5979H68.5024V27.404H68.2717C67.7911 28.8115 66.9501 29.9126 65.7487 30.7074C64.5472 31.4925 63.1199 31.8851 61.4667 31.8851C59.9193 31.8851 58.564 31.5308 57.401 30.8223C56.2476 30.1137 55.349 29.1371 54.705 27.8923C54.0706 26.6475 53.7486 25.2209 53.739 23.6122V9.53683H61.6974V21.9462C61.707 23.0377 61.9857 23.8947 62.5336 24.5171C63.0911 25.1395 63.8696 25.4507 64.8692 25.4507C65.5324 25.4507 66.1043 25.3118 66.5849 25.0341C67.0751 24.7469 67.4499 24.3447 67.7094 23.8277C67.9786 23.301 68.1083 22.6739 68.0987 21.9462Z" fill="#FB6231"/>
        <path d="M38.2214 32C35.8185 32 33.7616 31.526 32.0507 30.5781C30.3399 29.6206 29.0279 28.2897 28.1148 26.5853C27.2017 24.8714 26.7452 22.8845 26.7452 20.6248C26.7452 18.3651 27.2017 16.383 28.1148 14.6787C29.0279 12.9647 30.3399 11.6338 32.0507 10.6858C33.7616 9.72833 35.8185 9.24957 38.2214 9.24957C40.6242 9.24957 42.6811 9.72833 44.392 10.6858C46.1028 11.6338 47.4148 12.9647 48.3279 14.6787C49.241 16.383 49.6976 18.3651 49.6976 20.6248C49.6976 22.8845 49.241 24.8714 48.3279 26.5853C47.4148 28.2897 46.1028 29.6206 44.392 30.5781C42.6811 31.526 40.6242 32 38.2214 32Z" fill="#FB6231"/>
        <path d="M0 2.18314H8.93875L14.7057 14.1329H14.9364L20.7033 2.18314H29.642L18.8002 22.3483V31.5978H10.8418V22.3483L0 2.18314Z" fill="#FB6231"/>
        <path d="M46.2295 21L34.4262 27.9282V14.0718L46.2295 21Z" fill="white"/>
    </symbol>
    <symbol id="star-ob" xmlns="http://www.w3.org/2000/svg" width="20" height="20" viewBox="0 0 20 20" fill="none">
        <path d="M11.4417 2.92501L12.9084 5.85835C13.1084 6.26668 13.6417 6.65835 14.0917 6.73335L16.75 7.17501C18.45 7.45835 18.85 8.69168 17.625 9.90835L15.5584 11.975C15.2084 12.325 15.0167 13 15.125 13.4833L15.7167 16.0417C16.1834 18.0667 15.1084 18.85 13.3167 17.7917L10.825 16.3167C10.375 16.05 9.63338 16.05 9.17505 16.3167L6.68338 17.7917C4.90005 18.85 3.81671 18.0583 4.28338 16.0417L4.87505 13.4833C4.98338 13 4.79171 12.325 4.44171 11.975L2.37505 9.90835C1.15838 8.69168 1.55005 7.45835 3.25005 7.17501L5.90838 6.73335C6.35005 6.65835 6.88338 6.26668 7.08338 5.85835L8.55005 2.92501C9.35005 1.33335 10.65 1.33335 11.4417 2.92501Z" stroke="#292D32" stroke-linecap="round" stroke-linejoin="round"/>
    </symbol>
    <symbol id="star-ow" xmlns="http://www.w3.org/2000/svg" width="20" height="20" viewBox="0 0 20 20" fill="none">
        <path d="M11.4416 2.92501L12.9083 5.85835C13.1083 6.26668 13.6416 6.65835 14.0916 6.73335L16.7499 7.17501C18.4499 7.45835 18.8499 8.69168 17.6249 9.90835L15.5583 11.975C15.2083 12.325 15.0166 13 15.1249 13.4833L15.7166 16.0417C16.1833 18.0667 15.1083 18.85 13.3166 17.7917L10.8249 16.3167C10.3749 16.05 9.63326 16.05 9.17492 16.3167L6.68326 17.7917C4.89992 18.85 3.81659 18.0583 4.28326 16.0417L4.87492 13.4833C4.98326 13 4.79159 12.325 4.44159 11.975L2.37492 9.90835C1.15826 8.69168 1.54992 7.45835 3.24992 7.17501L5.90826 6.73335C6.34992 6.65835 6.88326 6.26668 7.08326 5.85835L8.54992 2.92501C9.34992 1.33335 10.6499 1.33335 11.4416 2.92501Z" stroke="white" stroke-linecap="round" stroke-linejoin="round"/>
    </symbol>
    <symbol id="star-bw" width="20" height="20" viewBox="0 0 20 20" fill="none" xmlns="http://www.w3.org/2000/svg">
        <path d="M11.4417 2.925L12.9084 5.85833C13.1084 6.26667 13.6417 6.65833 14.0917 6.73333L16.75 7.175C18.45 7.45833 18.85 8.69167 17.625 9.90833L15.5584 11.975C15.2084 12.325 15.0167 13 15.125 13.4833L15.7167 16.0417C16.1834 18.0667 15.1084 18.85 13.3167 17.7917L10.825 16.3167C10.375 16.05 9.63338 16.05 9.17505 16.3167L6.68338 17.7917C4.90005 18.85 3.81671 18.0583 4.28338 16.0417L4.87505 13.4833C4.98338 13 4.79171 12.325 4.44171 11.975L2.37505 9.90833C1.15838 8.69167 1.55005 7.45833 3.25005 7.175L5.90838 6.73333C6.35005 6.65833 6.88338 6.26667 7.08338 5.85833L8.55005 2.925C9.35005 1.33333 10.65 1.33333 11.4417 2.925Z" fill="white" stroke="#151515" stroke-linecap="round" stroke-linejoin="round"/>
    </symbol>
    <symbol id="star" xmlns="http://www.w3.org/2000/svg" width="20" height="20" viewBox="0 0 20 20" fill="none">
        <path d="M11.4417 2.925L12.9083 5.85833C13.1083 6.26666 13.6417 6.65833 14.0917 6.73333L16.75 7.175C18.45 7.45833 18.85 8.69166 17.625 9.90833L15.5583 11.975C15.2083 12.325 15.0167 13 15.125 13.4833L15.7167 16.0417C16.1833 18.0667 15.1083 18.85 13.3167 17.7917L10.825 16.3167C10.375 16.05 9.63332 16.05 9.17499 16.3167L6.68332 17.7917C4.89999 18.85 3.81665 18.0583 4.28332 16.0417L4.87499 13.4833C4.98332 13 4.79165 12.325 4.44165 11.975L2.37499 9.90833C1.15832 8.69166 1.54999 7.45833 3.24999 7.175L5.90832 6.73333C6.34999 6.65833 6.88332 6.26666 7.08332 5.85833L8.54999 2.925C9.34999 1.33333 10.65 1.33333 11.4417 2.925Z" fill="#FB6231" stroke="#151515" stroke-linecap="round" stroke-linejoin="round"/>
    </symbol>
    <symbol id="search" xmlns="http://www.w3.org/2000/svg" width="20" height="20" viewBox="0 0 20 20" fill="none">
        <path d="M9.66659 16C13.1644 16 15.9999 13.1645 15.9999 9.66667C15.9999 6.16886 13.1644 3.33333 9.66659 3.33333C6.16878 3.33333 3.33325 6.16886 3.33325 9.66667C3.33325 13.1645 6.16878 16 9.66659 16Z" stroke="white" stroke-width="1.5" stroke-linecap="round" stroke-linejoin="round"/>
        <path d="M16.6666 16.6667L15.3333 15.3333" stroke="white" stroke-width="1.5" stroke-linecap="round" stroke-linejoin="round"/>
    </symbol>
</svg>